# This file uses centimeters as units for non-parametric coordinates.

mtllib char_refinery_col.mtl
g default
v -2.718260 -5.500000 3.514694
v 2.718260 -5.500000 3.514694
v -4.636311 -1.711858 3.514694
v 2.718260 -1.711858 3.514694
v -4.636311 -1.711858 -3.500000
v 2.718260 -1.711858 -3.500000
v -2.718260 -5.500000 -3.500000
v 2.718260 -5.500000 -3.500000
v 5.000000 -5.500000 -1.011353
v 5.000000 -5.500000 1.907369
v 5.000000 -1.711858 -1.011353
v 5.000000 -1.711858 1.907369
v -5.087905 -5.500000 -1.950563
v -5.087905 -5.500000 2.846579
v -5.087905 -2.787247 2.846579
v -5.087905 -2.787247 -1.950563
v -4.636311 2.466377 3.514694
v 1.913538 2.466377 3.514694
v 1.913538 2.466377 -3.500000
v -4.636311 2.466377 -3.500000
v 1.913538 2.467874 3.514694
v -2.236914 5.324104 1.633351
v -0.035648 5.324104 1.633351
v -0.035648 5.324104 -3.500000
v -2.236914 5.324104 -3.500000
vt 0.375000 0.000000
vt 0.625000 0.000000
vt 0.375000 0.250000
vt 0.625000 0.250000
vt 0.375000 0.500000
vt 0.625000 0.500000
vt 0.375000 0.750000
vt 0.625000 0.750000
vt 0.375000 1.000000
vt 0.625000 1.000000
vt 0.875000 0.000000
vt 0.875000 0.250000
vt 0.125000 0.000000
vt 0.125000 0.250000
vt 0.625000 0.000000
vt 0.875000 0.000000
vt 0.875000 0.250000
vt 0.625000 0.250000
vt 0.125000 0.000000
vt 0.375000 0.000000
vt 0.375000 0.250000
vt 0.125000 0.250000
vt 0.375000 0.250000
vt 0.625000 0.250000
vt 0.625000 0.500000
vt 0.375000 0.500000
vt 0.875000 0.250000
vt 0.625000 0.250000
vt 0.375000 0.250000
vt 0.625000 0.250000
vt 0.625000 0.500000
vt 0.375000 0.500000
vn 0.000000 0.000000 1.000000
vn 0.000000 0.000000 1.000000
vn 0.000000 0.000000 1.000000
vn 0.000000 0.000000 1.000000
vn 0.000000 1.000000 0.000000
vn 0.000000 1.000000 0.000000
vn 0.000000 1.000000 0.000000
vn 0.000000 1.000000 0.000000
vn 0.000000 0.000000 -1.000000
vn 0.000000 0.000000 -1.000000
vn 0.000000 0.000000 -1.000000
vn 0.000000 0.000000 -1.000000
vn 0.000000 -1.000000 0.000000
vn 0.000000 -1.000000 0.000000
vn 0.000000 -1.000000 0.000000
vn 0.000000 -1.000000 0.000000
vn 1.000000 0.000000 0.000000
vn 1.000000 0.000000 0.000000
vn 1.000000 0.000000 0.000000
vn 1.000000 0.000000 0.000000
vn -1.000000 0.000000 0.000000
vn -1.000000 0.000000 0.000000
vn -1.000000 0.000000 0.000000
vn -1.000000 0.000000 0.000000
vn 0.000000 -1.000000 0.000000
vn 0.000000 -1.000000 0.000000
vn 0.000000 -1.000000 0.000000
vn 0.000000 -1.000000 0.000000
vn 0.737083 0.000000 -0.675802
vn 0.737083 0.000000 -0.675802
vn 0.737083 0.000000 -0.675802
vn 0.737083 0.000000 -0.675802
vn 0.575890 0.000000 0.817527
vn 0.575890 0.000000 0.817527
vn 0.575890 0.000000 0.817527
vn 0.575890 0.000000 0.817527
vn 0.000000 -1.000000 0.000000
vn 0.000000 -1.000000 0.000000
vn 0.000000 -1.000000 0.000000
vn 0.000000 -1.000000 0.000000
vn -0.389135 -0.114812 0.913998
vn -0.389135 -0.114812 0.913998
vn -0.389135 -0.114812 0.913998
vn -0.389135 -0.114812 0.913998
vn -0.922003 0.387182 0.000000
vn -0.922003 0.387182 0.000000
vn -0.922003 0.387182 0.000000
vn -0.922003 0.387182 0.000000
vn -0.687971 -0.202982 -0.696774
vn -0.687971 -0.202982 -0.696774
vn -0.687971 -0.202982 -0.696774
vn -0.687971 -0.202982 -0.696774
vn 0.000000 0.000000 1.000000
vn 0.000000 0.000000 1.000000
vn 0.000000 0.000000 1.000000
vn 0.000000 0.000000 1.000000
vn 0.000000 0.000000 -1.000000
vn 0.000000 0.000000 -1.000000
vn 0.000000 0.000000 -1.000000
vn 0.000000 0.000000 -1.000000
vn -0.981960 -0.189090 0.000020
vn -0.981960 -0.189090 0.000020
vn -0.981960 -0.189090 0.000020
vn -0.981960 -0.189090 0.000020
vn 0.572383 0.110200 0.812548
vn 0.572383 0.110200 0.812548
vn 0.572383 0.110200 0.812548
vn 0.804397 0.594092 -0.000090
vn 0.804397 0.594092 -0.000090
vn 0.804397 0.594092 -0.000090
vn 0.804397 0.594092 -0.000090
vn 0.729766 0.140552 -0.669093
vn 0.729766 0.140552 -0.669093
vn 0.729766 0.140552 -0.669093
vn -1.000000 0.000000 0.000000
vn -1.000000 0.000000 0.000000
vn -1.000000 0.000000 0.000000
vn -1.000000 0.000000 0.000000
vn 0.000000 0.549873 0.835248
vn 0.000000 0.549873 0.835248
vn 0.000000 0.549873 0.835248
vn 0.000000 0.549873 0.835248
vn 0.826128 0.563482 0.000000
vn 0.826128 0.563482 0.000000
vn 0.826128 0.563482 0.000000
vn 0.826128 0.563482 0.000000
vn 0.000000 0.000000 -1.000000
vn 0.000000 0.000000 -1.000000
vn 0.000000 0.000000 -1.000000
vn 0.000000 0.000000 -1.000000
vn -0.765849 0.643020 0.000000
vn -0.765849 0.643020 0.000000
vn -0.765849 0.643020 0.000000
vn -0.765849 0.643020 0.000000
s off
g char_refinery_col
usemtl initialShadingGroup
f 1/1/1 2/2/2 4/4/3 3/3/4
f 22/29/5 23/30/6 24/31/7 25/32/8
f 5/5/9 6/6/10 8/8/11 7/7/12
f 7/7/13 8/8/14 2/10/15 1/9/16
f 10/15/17 9/16/18 11/17/19 12/18/20
f 13/19/21 14/20/22 15/21/23 16/22/24
f 2/2/25 8/11/26 9/16/27 10/15/28
f 8/11/29 6/12/30 11/17/31 9/16/32
f 4/4/33 2/2/34 10/15/35 12/18/36
f 7/13/37 1/1/38 14/20/39 13/19/40
f 1/1/41 3/3/42 15/21/43 14/20/44
f 3/3/45 5/14/46 16/22/47 15/21/48
f 5/14/49 7/13/50 13/19/51 16/22/52
f 3/3/53 4/4/54 18/24/55 17/23/56
f 6/6/57 5/5/58 20/26/59 19/25/60
f 6/12/61 4/4/62 21/28/63 19/27/64
f 4/4/65 12/18/66 21/28/67
f 12/18/68 11/17/69 19/27/70 21/28/71
f 11/17/72 6/12/73 19/27/74
f 17/23/75 20/26/76 5/14/77 3/3/78
f 17/23/79 18/24/80 23/30/81 22/29/82
f 18/24/83 19/25/84 24/31/85 23/30/86
f 19/25/87 20/26/88 25/32/89 24/31/90
f 20/26/91 17/23/92 22/29/93 25/32/94
