# This file uses centimeters as units for non-parametric coordinates.

mtllib char_dropoff_col.mtl
g default
v -8.623440 -30.829342 3.168874
v 8.623440 -30.829342 3.168874
v -20.791945 -30.829342 -9.568793
v 20.791945 -30.829342 -9.568794
v 20.791945 -30.829342 -21.099348
v -20.791945 -30.829342 -18.287703
v -8.623440 4.921190 14.468174
v 8.623440 4.921190 14.468174
v 20.791945 30.663254 -0.702470
v -20.791945 30.663254 -0.702469
v 20.791945 30.663254 -21.099348
v -20.791945 30.663254 -18.287703
vt 0.375000 0.000000
vt 0.625000 0.000000
vt 0.375000 0.750000
vt 0.625000 0.750000
vt 0.375000 1.000000
vt 0.625000 1.000000
vt 0.875000 0.000000
vt 0.125000 0.000000
vt 0.625000 0.750000
vt 0.375000 0.750000
vt 0.375000 0.250000
vt 0.625000 0.250000
vt 0.625000 0.500000
vt 0.375000 0.500000
vt 0.625000 0.500000
vt 0.375000 0.500000
vn 0.000000 0.507722 0.861521
vn 0.000000 0.507722 0.861521
vn 0.000000 0.507723 0.861521
vn 0.000000 0.507722 0.861521
vn -0.067460 0.000000 -0.997722
vn -0.067460 0.000000 -0.997722
vn -0.067460 0.000000 -0.997722
vn -0.067460 0.000000 -0.997722
vn 0.000000 -1.000000 -0.000000
vn 0.000000 -1.000000 -0.000000
vn 0.000000 -1.000000 -0.000000
vn 0.000000 -1.000000 -0.000000
vn -0.800925 -0.121581 0.586291
vn -0.800925 -0.121581 0.586291
vn -0.800925 -0.121581 0.586291
vn -0.800925 -0.121581 0.586291
vn 0.000000 1.000000 0.000000
vn 0.000000 1.000000 0.000000
vn 0.000000 1.000000 0.000000
vn 0.000000 1.000000 0.000000
vn 0.000000 -1.000000 0.000000
vn 0.000000 -1.000000 0.000000
vn 0.000000 -1.000000 0.000000
vn 0.000000 -1.000000 0.000000
vn -1.000000 0.000000 0.000000
vn -1.000000 0.000000 0.000000
vn -1.000000 0.000000 0.000000
vn -1.000000 0.000000 0.000000
vn 0.000000 -0.301366 0.953509
vn 0.000000 -0.301366 0.953509
vn 0.000000 -0.301366 0.953509
vn 0.000000 -0.301366 0.953509
vn 0.800925 -0.121581 0.586291
vn 0.800925 -0.121581 0.586291
vn 0.800925 -0.121581 0.586291
vn 0.800925 -0.121581 0.586291
vn 1.000000 -0.000000 0.000000
vn 1.000000 -0.000000 0.000000
vn 1.000000 -0.000000 0.000000
vn 1.000000 -0.000000 0.000000
s off
g char_dropoff_col
usemtl initialShadingGroup
f 7/11/1 8/12/2 9/13/3 10/14/4
f 5/9/5 6/10/6 12/16/7 11/15/8
f 3/3/9 4/4/10 2/6/11 1/5/12
f 3/8/13 1/1/14 7/11/15 10/14/16
f 10/14/17 9/13/18 11/15/19 12/16/20
f 4/4/21 3/3/22 6/10/23 5/9/24
f 6/10/25 3/3/26 10/14/27 12/16/28
f 2/2/29 8/12/30 7/11/31 1/1/32
f 4/7/33 9/13/34 8/12/35 2/2/36
f 5/9/37 11/15/38 9/13/39 4/4/40
