# This file uses centimeters as units for non-parametric coordinates.

mtllib char_cookbot_col.mtl
g default
v -1.743822 -3.001597 0.608977
v 1.284837 -3.001597 0.608977
v -1.743822 -0.544226 0.608977
v 1.284837 -0.544226 0.608977
v -1.743822 -0.544226 -1.762895
v 1.284837 -0.544226 -1.762895
v -1.743822 -3.001597 -1.762895
v 1.284837 -3.001597 -1.762895
v -0.723123 2.470026 0.090501
v 0.723123 2.470026 0.090501
v 0.723123 2.470026 -1.244419
v -0.723123 2.470026 -1.244419
vt 0.375000 0.000000
vt 0.625000 0.000000
vt 0.375000 0.250000
vt 0.625000 0.250000
vt 0.375000 0.500000
vt 0.625000 0.500000
vt 0.375000 0.750000
vt 0.625000 0.750000
vt 0.375000 1.000000
vt 0.625000 1.000000
vt 0.875000 0.000000
vt 0.875000 0.250000
vt 0.125000 0.000000
vt 0.125000 0.250000
vt 0.375000 0.250000
vt 0.625000 0.250000
vt 0.625000 0.500000
vt 0.375000 0.500000
vn 0.000000 0.000000 1.000000
vn 0.000000 0.000000 1.000000
vn 0.000000 0.000000 1.000000
vn 0.000000 0.000000 1.000000
vn 0.000000 1.000000 0.000000
vn 0.000000 1.000000 0.000000
vn 0.000000 1.000000 0.000000
vn 0.000000 1.000000 0.000000
vn 0.000000 0.000000 -1.000000
vn 0.000000 0.000000 -1.000000
vn 0.000000 0.000000 -1.000000
vn 0.000000 0.000000 -1.000000
vn 0.000000 -1.000000 0.000000
vn 0.000000 -1.000000 0.000000
vn 0.000000 -1.000000 0.000000
vn 0.000000 -1.000000 0.000000
vn 1.000000 0.000000 0.000000
vn 1.000000 0.000000 0.000000
vn 1.000000 0.000000 0.000000
vn 1.000000 0.000000 0.000000
vn -1.000000 0.000000 0.000000
vn -1.000000 0.000000 0.000000
vn -1.000000 0.000000 0.000000
vn -1.000000 0.000000 0.000000
vn 0.000000 0.169519 0.985527
vn 0.000000 0.169519 0.985527
vn 0.000000 0.169519 0.985527
vn 0.000000 0.169519 0.985527
vn 0.983076 0.183199 0.000000
vn 0.983076 0.183199 0.000000
vn 0.983076 0.183199 0.000000
vn 0.983076 0.183199 0.000000
vn 0.000000 0.169519 -0.985527
vn 0.000000 0.169519 -0.985527
vn 0.000000 0.169519 -0.985527
vn 0.000000 0.169519 -0.985527
vn -0.947169 0.320734 0.000000
vn -0.947169 0.320734 0.000000
vn -0.947169 0.320734 0.000000
vn -0.947169 0.320734 0.000000
s off
g char_cookbot_col
usemtl initialShadingGroup
f 1/1/1 2/2/2 4/4/3 3/3/4
f 9/15/5 10/16/6 11/17/7 12/18/8
f 5/5/9 6/6/10 8/8/11 7/7/12
f 7/7/13 8/8/14 2/10/15 1/9/16
f 2/2/17 8/11/18 6/12/19 4/4/20
f 7/13/21 1/1/22 3/3/23 5/14/24
f 3/3/25 4/4/26 10/16/27 9/15/28
f 4/4/29 6/6/30 11/17/31 10/16/32
f 6/6/33 5/5/34 12/18/35 11/17/36
f 5/5/37 3/3/38 9/15/39 12/18/40
