# This file uses centimeters as units for non-parametric coordinates.

mtllib obj_harvest_resource_slimyclam_col.mtl
g default
v -0.736377 -0.716344 0.383164
v 0.369066 -0.716344 0.574321
v -0.736377 -0.108216 0.304093
v 0.476798 0.145281 0.574321
v -0.736377 -0.108216 -0.304093
v 0.476798 0.145281 -0.574321
v -0.736377 -0.716344 -0.383164
v 0.369066 -0.716344 -0.574321
v 0.607348 0.656094 0.000000
v -0.686272 0.107199 0.000000
v -0.736377 -0.980829 0.000000
v 0.369066 -1.045522 0.000000
v 1.124744 0.005939 0.000000
v -0.985532 -0.509089 0.000000
vt 0.375000 0.000000
vt 0.625000 0.000000
vt 0.375000 0.250000
vt 0.625000 0.250000
vt 0.375000 0.500000
vt 0.625000 0.500000
vt 0.375000 0.750000
vt 0.625000 0.750000
vt 0.375000 1.000000
vt 0.625000 1.000000
vt 0.875000 0.000000
vt 0.875000 0.250000
vt 0.125000 0.000000
vt 0.125000 0.250000
vt 0.625000 0.375000
vt 0.750000 0.250000
vt 0.250000 0.250000
vt 0.375000 0.375000
vt 0.250000 0.000000
vt 0.375000 0.875000
vt 0.625000 0.875000
vt 0.750000 0.000000
vt 0.750000 0.125000
vt 0.250000 0.125000
vn -0.322347 -0.375395 0.869006
vn 0.253723 -0.445123 0.858773
vn -0.414041 0.359898 0.836089
vn 0.096887 0.382277 0.918954
vn -0.466460 0.884542 0.000000
vn 0.056370 0.998410 0.000000
vn -0.322347 -0.375395 -0.869006
vn -0.414041 0.359898 -0.836089
vn 0.253723 -0.445123 -0.858773
vn 0.096887 0.382277 -0.918954
vn -0.281498 -0.959562 0.000000
vn 0.402896 -0.915246 -0.000000
vn 1.000000 -0.000132 0.000000
vn -0.999759 -0.021934 0.000000
s 1
g obj_harvest_resource_slimyclam_col
usemtl initialShadingGroup
f 1/1/1 2/2/2 3/3/3
f 3/3/3 2/2/2 4/4/4
f 3/3/3 4/4/4 10/18/5
f 10/18/5 4/4/4 9/15/6
f 7/7/7 5/5/8 8/8/9
f 8/8/9 5/5/8 6/6/10
f 11/20/11 12/21/12 1/9/1
f 1/9/1 12/21/12 2/10/2
f 12/22/12 13/23/13 2/2/2
f 2/2/2 13/23/13 4/4/4
f 11/19/11 1/1/1 14/24/14
f 14/24/14 1/1/1 3/3/3
f 9/15/6 6/6/10 10/18/5
f 10/18/5 6/6/10 5/5/8
f 11/19/11 14/24/14 7/13/7
f 7/13/7 14/24/14 5/14/8
f 8/8/9 12/21/12 7/7/7
f 7/7/7 12/21/12 11/20/11
f 12/22/12 8/11/9 13/23/13
f 13/23/13 8/11/9 6/12/10
f 4/4/4 13/23/13 9/16/6
f 14/24/14 3/3/3 10/17/5
f 5/14/8 14/24/14 10/17/5
f 9/16/6 13/23/13 6/12/10
